<svg xmlns="http://www.w3.org/2000/svg" width="16" height="16" viewBox="0 0 16 16" fill="none">
    <path fill-rule="evenodd" clip-rule="evenodd" 
          d="M8 1.5a6.5 6.5 0 100 13 6.5 6.5 0 000-13zM0 8a8 8 0 1116 0A8 8 0 010 8z" 
          fill="currentColor"/>
    <path fill-rule="evenodd" clip-rule="evenodd" 
          d="M8 3.5a.75.75 0 01.75.75v3.5h3.5a.75.75 0 010 1.5h-4.25a.75.75 0 01-.75-.75V4.25A.75.75 0 018 3.5z" 
          fill="currentColor"/>
    <path d="M5.5 8a2.5 2.5 0 115 0 2.5 2.5 0 01-5 0z" 
          fill="currentColor"/>
</svg>